<svg width="30" height="30" viewBox="0 0 30 30" fill="none" xmlns="http://www.w3.org/2000/svg">
<path d="M0.699485 0.115937C0.216798 0.324861 -0.0569654 0.872387 0.0510989 1.43432C0.0943247 1.67927 0.836366 2.45013 6.73668 8.35044L13.379 15L6.73668 21.6424C-0.482019 28.8683 -0.0785783 28.4216 0.0510989 29.0988C0.115938 29.4518 0.548195 29.8841 0.901205 29.9489C1.57841 30.0786 1.13174 30.482 8.35765 23.2633L15 16.621L21.6496 23.2633C28.8683 30.482 28.4216 30.0786 29.0988 29.9489C29.4518 29.8841 29.8841 29.4518 29.9489 29.0988C30.0786 28.4216 30.482 28.8683 23.2633 21.6424L16.621 15L23.2633 8.35044C30.482 1.13174 30.0786 1.57841 29.9489 0.901204C29.8841 0.548194 29.4518 0.115937 29.0988 0.051098C28.4216 -0.0785792 28.8683 -0.482019 21.6424 6.73668L15 13.379L8.38646 6.7727C4.66184 3.04808 1.69368 0.130345 1.57841 0.0871195C1.30465 -0.0137406 0.966044 0.000668016 0.699485 0.115937Z" fill="white"/>
</svg>
