<svg width="15" height="16" viewBox="0 0 15 16" fill="none" xmlns="http://www.w3.org/2000/svg">
<path d="M0.504598 0.664671C0.437593 0.680625 0.319536 0.754011 0.242959 0.824207C-0.0218697 1.05394 0.000465263 0.425369 0.000465263 8.11498C0.000465263 13.2488 0.0100374 14.9942 0.0387538 15.1058C0.0898052 15.31 0.313155 15.5334 0.51736 15.5844C0.629035 15.6132 2.37435 15.6227 7.50821 15.6227C15.1946 15.6227 14.5693 15.6419 14.799 15.3834C14.8724 15.2973 14.9394 15.1824 14.9617 15.0963C15.0128 14.8952 15.0128 1.35387 14.9617 1.15285C14.9394 1.0667 14.8724 0.951836 14.799 0.865686C14.5693 0.604048 15.1978 0.626383 7.48587 0.629574C3.08269 0.632764 0.581175 0.645527 0.504598 0.664671ZM12.4379 2.70673C12.6421 2.75778 12.8654 2.98113 12.9165 3.18533C12.9707 3.39592 12.9707 6.72702 12.9165 6.93761C12.8654 7.1482 12.6389 7.36836 12.4251 7.41941C12.1124 7.49599 11.8093 7.35559 11.6657 7.06843L11.5827 6.89932V5.46988V4.04045H10.1533H8.72387L8.55476 3.95749C8.12721 3.74371 8.05063 3.17895 8.41118 2.86626C8.48776 2.79607 8.60581 2.72268 8.67282 2.70673C8.8515 2.65887 12.2496 2.65887 12.4379 2.70673ZM3.09546 8.91585C3.19437 8.97648 3.26137 9.05305 3.32519 9.1743L3.41453 9.34341V10.776V12.2087H4.84397H6.2734L6.44251 12.2916C6.72968 12.4352 6.87007 12.7383 6.79349 13.051C6.74244 13.2648 6.52228 13.4913 6.31169 13.5424C6.10111 13.5966 2.77 13.5966 2.55942 13.5424C2.35521 13.4913 2.13186 13.268 2.08081 13.0638C2.05209 12.9585 2.04252 12.4033 2.04252 11.1781C2.04252 9.18706 2.03933 9.20621 2.28501 8.99243C2.52751 8.77546 2.81786 8.74994 3.09546 8.91585Z" fill="#F99417"/>
</svg>
