<svg width="15" height="15" viewBox="0 0 15 15" fill="none" xmlns="http://www.w3.org/2000/svg">
<path d="M6.56986 0.034154C4.08308 0.353597 1.93931 1.87185 0.803112 4.12231C-0.100845 5.90975 -0.247336 7.94845 0.392222 9.87946C1.18542 12.2735 3.15411 14.122 5.59087 14.7644C6.4984 15.0049 7.65603 15.0659 8.59929 14.9259C10.7109 14.6137 12.5617 13.4364 13.7586 11.6346C14.241 10.9168 14.6912 9.81127 14.8555 8.9678C15.1092 7.62901 15.0306 6.39789 14.6054 5.11294C13.6908 2.35999 11.2826 0.38949 8.39206 0.0305647C8.04191 -0.0125063 6.91286 -0.00891704 6.56986 0.034154ZM8.09193 3.69519C8.79938 3.91413 9.40678 4.41304 9.6819 5.00167C9.78909 5.23139 9.83196 5.38572 9.88913 5.76618C9.97131 6.29739 10.0285 6.44096 10.1714 6.4948C10.225 6.51634 10.4608 6.54505 10.693 6.563C11.1147 6.58812 11.1218 6.59171 11.2254 6.70657L11.3255 6.82142L11.3147 8.0992L11.304 9.38056L11.2004 9.68206C10.9432 10.425 10.3572 11.0065 9.62116 11.2506L9.30317 11.3546H7.48096H5.65875L5.37292 11.2577C4.61902 10.9993 4.04021 10.4322 3.77581 9.68565C3.69363 9.45234 3.69363 9.45234 3.69363 7.4962C3.69363 5.54006 3.69363 5.54006 3.77581 5.30676C4.01877 4.6248 4.57615 4.03617 5.20856 3.79569C5.60516 3.64494 5.79453 3.62699 6.8414 3.6234C7.77037 3.61981 7.86684 3.62699 8.09193 3.69519Z" fill="black"/>
<path d="M5.90503 5.68411C5.6835 5.79897 5.59418 6.14712 5.74067 6.34453C5.88359 6.54194 5.98363 6.56348 6.79469 6.56348C7.62719 6.56348 7.73438 6.54194 7.85586 6.34094C7.89873 6.27275 7.92732 6.15789 7.92732 6.06816C7.92732 5.94613 7.90588 5.89229 7.80584 5.78102L7.68436 5.64822L6.84829 5.63745C6.15871 5.63027 5.99792 5.64104 5.90503 5.68411Z" fill="black"/>
<path d="M5.90503 8.48294C5.6835 8.59421 5.59418 8.94595 5.74067 9.14336C5.89788 9.35872 5.91575 9.3623 7.49142 9.3623C8.66335 9.3623 8.95276 9.35154 9.0528 9.31206C9.33863 9.19002 9.40652 8.78802 9.18142 8.5619L9.07066 8.44705L7.54144 8.43987C6.23374 8.4291 6.0015 8.43628 5.90503 8.48294Z" fill="black"/>
</svg>
