<svg width="30" height="64" viewBox="0 0 30 64" fill="none" xmlns="http://www.w3.org/2000/svg">
<path d="M0.770165 1.05842C-0.0308478 1.745 -0.23428 2.77487 0.299729 3.47417C0.452303 3.69032 6.32639 9.97127 13.3575 17.4347C20.3886 24.9108 26.1991 31.1409 26.2881 31.2935C26.3771 31.4333 26.4407 31.7639 26.4407 32.0055C26.4407 32.247 26.3771 32.5776 26.2881 32.7175C26.1991 32.8701 20.3123 39.1764 13.2049 46.7416C-0.742858 61.5666 -0.208851 60.9309 0.109011 61.9862C0.337872 62.7491 0.884595 63.1814 1.69832 63.2577C2.35947 63.3085 2.42305 63.2831 2.93163 62.8254C3.88521 61.9608 28.92 35.1841 29.276 34.6374C30.1279 33.3532 30.2423 31.3189 29.543 29.8186C29.1235 28.9158 30.1152 29.9966 12.4548 11.2173C7.31812 5.76278 2.93163 1.17285 2.69005 1.02027C2.07976 0.613411 1.29146 0.626125 0.770165 1.05842Z" fill="white"/>
</svg>
