<svg width="15" height="16" viewBox="0 0 15 16" fill="none" xmlns="http://www.w3.org/2000/svg">
<path d="M6.76 0.0355451C3.64189 0.354405 1.01381 2.65691 0.228413 5.75823C0.0438103 6.48658 0.000176861 6.86921 0.000176861 7.7016C-0.00317955 8.487 0.0404538 8.88306 0.198205 9.54763C0.772153 11.981 2.5477 14.0318 4.84684 14.9179C5.17241 15.0454 5.30331 15.0622 5.44764 14.9884C5.60204 14.9078 5.61882 14.8239 5.61882 14.0553V13.3471L5.49463 13.3706C5.18248 13.4243 4.62532 13.431 4.39037 13.3807C3.84327 13.2632 3.38344 12.9208 3.16863 12.4644C3.10822 12.3368 3.01088 12.1254 2.94711 11.9978C2.79943 11.6857 2.56448 11.4004 2.28254 11.1889C2.155 11.0949 2.02745 10.9775 1.99724 10.9305C1.95025 10.8466 1.95025 10.8365 2.00396 10.7828C2.10801 10.6787 2.46714 10.7022 2.7323 10.8264C3.03438 10.9707 3.21898 11.1486 3.48749 11.5447C3.81978 12.0414 4.08158 12.2328 4.55483 12.32C4.81663 12.3704 5.15563 12.3301 5.45771 12.216L5.64231 12.1455L5.68259 11.9542C5.72958 11.7092 5.8974 11.3567 6.0283 11.2191L6.12899 11.1151L5.96788 11.0916C4.0648 10.8264 3.10822 9.99068 2.77929 8.30575C2.73566 8.08423 2.71887 7.83921 2.71887 7.38274C2.71887 6.84907 2.72894 6.72488 2.79271 6.49329C2.91019 6.07374 3.15856 5.59041 3.39016 5.33533L3.464 5.25142L3.40023 4.99968C3.28611 4.55328 3.31632 3.91892 3.47407 3.39867L3.54455 3.17715L3.81642 3.19729C4.24269 3.22414 4.72937 3.42217 5.36373 3.81823C5.62553 3.98269 5.62889 3.98269 5.76986 3.93906C6.07529 3.84843 6.76336 3.75445 7.26346 3.73432C7.85755 3.71418 8.51876 3.77459 9.04907 3.90549L9.37129 3.98269L9.60288 3.83165C9.9251 3.62355 10.5259 3.33155 10.8045 3.25435C10.932 3.21743 11.1301 3.18722 11.2442 3.18722H11.4489L11.5228 3.43224C11.6805 3.96255 11.704 4.49622 11.5932 4.95605L11.5261 5.23463L11.6906 5.45951C12.0396 5.93948 12.2343 6.48322 12.2779 7.09744C12.3048 7.43309 12.2578 8.06074 12.1773 8.45344C11.8852 9.90005 10.9522 10.7526 9.36122 11.0245C9.17662 11.0547 8.99202 11.0882 8.95174 11.0949C8.8779 11.1084 8.8779 11.1117 8.99202 11.2628C9.13298 11.4474 9.23032 11.6588 9.30416 11.9475C9.35451 12.1354 9.36122 12.3335 9.35115 13.4411C9.34108 14.9078 9.34108 14.9112 9.60624 15.0018C9.74385 15.0488 9.76399 15.0454 10.0258 14.9582C10.1768 14.9045 10.499 14.7669 10.7374 14.6494C12.9862 13.5552 14.5435 11.4004 14.9396 8.826C15.0201 8.28897 15.0201 7.11423 14.9396 6.58056C14.6107 4.47608 13.5433 2.68376 11.8785 1.44188C10.4453 0.374543 8.55232 -0.145701 6.76 0.0355451Z" fill="black"/>
</svg>
