<svg width="10" height="10" viewBox="0 0 10 10" fill="none" xmlns="http://www.w3.org/2000/svg">
<path d="M4.53239 0.0205621C3.75361 0.0909055 2.89656 0.393773 2.23714 0.833418C1.01222 1.65018 0.239311 2.89096 0.0260269 4.38576C-0.0131078 4.65931 -0.00723763 5.37056 0.0377673 5.67538C0.11408 6.21859 0.274532 6.73249 0.521081 7.22685C1.16876 8.53015 2.3428 9.47783 3.76339 9.84518C4.75937 10.1031 5.85123 10.0367 6.8159 9.66151C7.4988 9.39381 8.06626 9.01669 8.59066 8.47739C8.99179 8.06706 9.25595 7.68798 9.50054 7.1819C9.73339 6.70122 9.87232 6.25572 9.95451 5.734C10.0152 5.34321 10.0152 4.65931 9.95451 4.26852C9.87037 3.73508 9.73144 3.29153 9.49076 2.80303C9.25008 2.31258 8.97809 1.92765 8.59262 1.52904C8.1817 1.10307 7.77666 0.806063 7.24051 0.534459C6.39716 0.110445 5.48336 -0.0634591 4.53239 0.0205621ZM6.78655 2.12891C6.95874 2.19339 7.0468 2.26373 7.42053 2.6428C7.72187 2.94567 7.78644 3.02188 7.83732 3.12935C7.92146 3.30716 7.94689 3.47129 7.91754 3.63152C7.86471 3.91289 7.94689 3.82301 6.10756 5.65975C4.58914 7.178 4.41107 7.34995 4.30737 7.39684C4.23301 7.43006 4.01972 7.48477 3.72034 7.54534C3.28204 7.63523 3.23899 7.63914 3.10789 7.6235C2.71458 7.57075 2.42499 7.28351 2.37411 6.89076C2.3565 6.75984 2.36237 6.71686 2.45238 6.27916C2.51304 5.98216 2.56783 5.76722 2.60109 5.69297C2.64805 5.58941 2.82025 5.4116 4.34063 3.89531C6.12713 2.11328 6.0743 2.16213 6.32085 2.09764C6.44608 2.06443 6.64958 2.0781 6.78655 2.12891Z" fill="black"/>
<path d="M4.92025 4.48913L3.34312 6.06599L3.27073 6.42552C3.23159 6.62483 3.2042 6.78896 3.20615 6.79287C3.21007 6.79482 3.37443 6.76747 3.57402 6.72839L3.93406 6.65609L5.5151 5.08118L7.09419 3.50627L6.79481 3.20731L6.49738 2.91031L4.92025 4.48913Z" fill="black"/>
</svg>
