<svg width="10" height="10" viewBox="0 0 10 10" fill="none" xmlns="http://www.w3.org/2000/svg">
<path d="M4.5243 0.0125435C2.95967 0.174981 1.58867 1.02631 0.755505 2.3532C-0.425788 4.23395 -0.202829 6.73118 1.29139 8.3575C2.1226 9.26167 3.15134 9.79987 4.38739 9.976C4.62013 10.0093 5.38875 10.0073 5.62931 9.97405C6.84581 9.80574 7.87455 9.2695 8.70381 8.36925C9.38637 7.62947 9.82251 6.68225 9.97506 5.6176C10.0083 5.38667 10.0083 4.61558 9.97506 4.38465C9.85967 3.5705 9.60151 2.87966 9.17319 2.23382C8.99326 1.95983 8.81137 1.73673 8.55712 1.48035C7.77676 0.689691 6.81061 0.20238 5.69777 0.0379854C5.45721 0.00275812 4.7629 -0.0128985 4.5243 0.0125435ZM6.926 2.61349C6.9612 2.61349 7.12549 2.78572 7.15678 2.85813C7.21741 2.98925 7.19394 3.16147 7.10202 3.26324C7.07073 3.29847 7.08442 3.31413 7.33476 3.56855C7.62421 3.86211 7.65746 3.91886 7.63595 4.07739C7.61443 4.24178 7.4834 4.37095 7.32302 4.38856C7.16656 4.40617 7.10789 4.37095 6.81647 4.08521L6.54853 3.81905L6.43119 3.93452L6.31384 4.04999L6.51724 4.25744C6.73042 4.47467 6.75976 4.52751 6.73629 4.65864C6.72064 4.74083 6.62676 4.83673 6.54658 4.85434C6.41554 4.8837 6.35882 4.85239 6.13977 4.63907L5.93051 4.43553L5.41418 4.9522L4.8959 5.47082L4.92328 5.53345C5.03671 5.81135 5.06409 6.1558 4.99564 6.41022C4.83331 7.00908 4.31698 7.40832 3.70287 7.40832C2.56069 7.40832 1.95636 6.09904 2.68586 5.20662C2.83841 5.02069 3.11613 4.85043 3.37625 4.78389C3.64224 4.71539 4.03535 4.74866 4.24266 4.85434L4.30525 4.88761L5.44156 3.75251C6.48595 2.70743 6.58374 2.61545 6.6561 2.60371C6.69913 2.59588 6.74411 2.58805 6.75389 2.5861C6.76562 2.58218 6.80474 2.58805 6.8419 2.59588C6.87906 2.60567 6.91622 2.61349 6.926 2.61349Z" fill="black"/>
<path d="M3.5229 5.79417C3.37621 5.88218 3.32341 6.06407 3.39773 6.2264C3.4916 6.43175 3.77715 6.4826 3.93752 6.32027C4.10181 6.15599 4.05682 5.88218 3.84756 5.77265C3.7615 5.72963 3.61873 5.73745 3.5229 5.79417Z" fill="black"/>
</svg>
