<svg width="11" height="13" viewBox="0 0 11 13" fill="none" xmlns="http://www.w3.org/2000/svg">
<path d="M5.05274 0.68277C3.85486 0.812975 2.85488 1.49264 2.34448 2.52907C2.09449 3.03948 1.99293 3.50821 1.99293 4.17486V4.57329H1.36795C0.677861 4.57329 0.633591 4.5811 0.477345 4.74776C0.315892 4.91703 0.326308 4.68527 0.326308 8.45339C0.326308 11.5028 0.331516 11.9038 0.367973 11.9898C0.417451 12.1121 0.519011 12.2189 0.644008 12.284C0.737755 12.3309 0.865356 12.3335 5.31836 12.3335C9.71928 12.3335 9.90157 12.3309 10.0005 12.284C10.1281 12.2241 10.2323 12.1174 10.2844 11.9898C10.3208 11.9038 10.326 11.5028 10.326 8.45339C10.326 4.68527 10.3365 4.91703 10.175 4.74776C10.0188 4.5811 9.97448 4.57329 9.2844 4.57329H8.65941V4.17486C8.65941 3.50821 8.55785 3.03948 8.30786 2.52907C7.84694 1.5942 6.96936 0.932764 5.93032 0.734852C5.70637 0.693187 5.22982 0.664541 5.05274 0.68277ZM5.6647 1.81295C6.36 1.92232 6.96936 2.36241 7.28966 2.98479C7.48236 3.35457 7.51882 3.52124 7.53184 4.08372L7.54486 4.57329H5.32878H3.11269V4.15924C3.11269 3.70352 3.14654 3.48217 3.26112 3.19833C3.64393 2.2296 4.64911 1.6541 5.6647 1.81295ZM9.20627 8.45339V11.2398H5.32617H1.44607V8.45339V5.66701H5.32617H9.20627V8.45339Z" fill="black"/>
<path d="M5.04274 6.82854C4.49849 6.97437 4.14173 7.51602 4.23027 8.06288C4.27193 8.32069 4.38651 8.52641 4.59744 8.72172L4.77973 8.89098V9.50555V10.1201H5.32659H5.87345V9.50555V8.89098L6.05574 8.72172C6.35521 8.44308 6.48541 8.09413 6.42031 7.72695C6.30573 7.07072 5.67293 6.65927 5.04274 6.82854Z" fill="black"/>
</svg>
