<svg width="15" height="15" viewBox="0 0 15 15" fill="none" xmlns="http://www.w3.org/2000/svg">
<path d="M6.76 0.0353859C3.64189 0.353564 1.01381 2.65114 0.228413 5.74584C0.0438103 6.47262 0.000176861 6.85444 0.000176861 7.68505C-0.00317955 8.46877 0.0404538 8.86398 0.198205 9.52713C0.772153 11.9553 2.5477 14.0017 4.84684 14.8859C5.17241 15.0132 5.30331 15.0299 5.44764 14.9562C5.60204 14.8759 5.61882 14.7921 5.61882 14.0252V13.3185L5.49463 13.3419C5.18248 13.3955 4.62532 13.4022 4.39037 13.352C3.84327 13.2347 3.38344 12.8931 3.16863 12.4376C3.10822 12.3103 3.01088 12.0993 2.94711 11.9721C2.79943 11.6606 2.56448 11.3759 2.28254 11.1649C2.155 11.0711 2.02745 10.9539 1.99724 10.907C1.95025 10.8233 1.95025 10.8132 2.00396 10.7596C2.10801 10.6558 2.46714 10.6793 2.7323 10.8032C3.03438 10.9472 3.21898 11.1247 3.48749 11.5199C3.81978 12.0156 4.08158 12.2065 4.55483 12.2936C4.81663 12.3438 5.15563 12.3036 5.45771 12.1898L5.64231 12.1194L5.68259 11.9285C5.72958 11.684 5.8974 11.3324 6.0283 11.1951L6.12899 11.0912L5.96788 11.0678C4.0648 10.8032 3.10822 9.96923 2.77929 8.28791C2.73566 8.06686 2.71887 7.82237 2.71887 7.36687C2.71887 6.83434 2.72894 6.71042 2.79271 6.47932C2.91019 6.06067 3.15856 5.57838 3.39016 5.32383L3.464 5.2401L3.40023 4.98891C3.28611 4.54346 3.31632 3.91046 3.47407 3.39132L3.54455 3.17027L3.81642 3.19037C4.24269 3.21716 4.72937 3.41477 5.36373 3.80998C5.62553 3.97409 5.62889 3.97409 5.76986 3.93055C6.07529 3.84012 6.76336 3.74634 7.26346 3.72625C7.85755 3.70615 8.51876 3.76644 9.04907 3.89706L9.37129 3.97409L9.60288 3.82338C9.9251 3.61572 10.5259 3.32434 10.8045 3.24731C10.932 3.21046 11.1301 3.18032 11.2442 3.18032H11.4489L11.5228 3.42482C11.6805 3.954 11.704 4.48652 11.5932 4.94537L11.5261 5.22336L11.6906 5.44776C12.0396 5.9267 12.2343 6.46927 12.2779 7.08218C12.3048 7.41711 12.2578 8.04342 12.1773 8.43528C11.8852 9.8788 10.9522 10.7295 9.36122 11.0008C9.17662 11.0309 8.99202 11.0644 8.95174 11.0711C8.8779 11.0845 8.8779 11.0879 8.99202 11.2386C9.13298 11.4228 9.23032 11.6338 9.30416 11.9218C9.35451 12.1094 9.36122 12.307 9.35115 13.4122C9.34108 14.8759 9.34108 14.8792 9.60624 14.9696C9.74385 15.0165 9.76399 15.0132 10.0258 14.9261C10.1768 14.8725 10.499 14.7352 10.7374 14.618C12.9862 13.5261 14.5435 11.3759 14.9396 8.80704C15.0201 8.27116 15.0201 7.09893 14.9396 6.5664C14.6107 4.46643 13.5433 2.67794 11.8785 1.43872C10.4453 0.373659 8.55232 -0.145473 6.76 0.0353859Z" fill="black"/>
</svg>
