<svg width="15" height="15" viewBox="0 0 15 15" fill="none" xmlns="http://www.w3.org/2000/svg">
<path d="M6.7866 0.0188141C4.43991 0.262434 2.38362 1.53924 1.13401 3.5293C-0.294531 5.80113 -0.379599 8.74512 0.914012 11.0962C1.50068 12.1646 2.34256 13.0804 3.38097 13.776C4.07911 14.2427 5.14098 14.6889 5.95059 14.8503C6.57833 14.9765 6.81593 15 7.50527 15C8.19754 15 8.48208 14.9706 9.06582 14.8503C11.6472 14.3102 13.8032 12.3789 14.6333 9.85462C14.9032 9.03864 15 8.41344 15 7.5006C15 6.61711 14.9061 5.99485 14.6597 5.22583C14.296 4.08111 13.6917 3.08902 12.8352 2.2202C11.6648 1.03439 10.2157 0.303527 8.54661 0.0569715C8.18581 0.00413815 7.14447 -0.0193433 6.7866 0.0188141ZM11.0429 5.09962C11.1074 5.16126 11.1544 5.24051 11.172 5.31389C11.2101 5.47532 11.2101 9.68731 11.172 9.82233C11.1573 9.8781 11.1016 9.96322 11.0517 10.0131L10.9637 10.0982L7.49647 10.107C4.14364 10.1129 4.02631 10.11 3.9383 10.0571C3.7447 9.93681 3.75057 10.0337 3.75057 7.57692C3.75057 5.11723 3.7447 5.17887 3.9383 5.06146C4.02631 5.00863 4.14951 5.00569 7.48474 5.00569H10.9373L11.0429 5.09962Z" fill="black"/>
<path d="M4.4162 5.70439C4.35167 5.77484 4.35167 5.86583 4.41914 5.92159C4.44554 5.94508 4.69487 6.10358 4.96768 6.27382C5.24341 6.44406 5.92102 6.86966 6.47835 7.21895C7.22343 7.68858 7.5021 7.84708 7.5461 7.83534C7.57836 7.8236 8.05944 7.52127 8.61677 7.16318C9.17411 6.80509 9.84292 6.38242 10.1011 6.22098C10.6203 5.89811 10.6848 5.82473 10.5616 5.70439C10.5029 5.64275 10.4941 5.64275 10.4032 5.68678C10.3064 5.73081 9.49971 6.23859 8.63437 6.79628C7.93623 7.24536 7.53436 7.50072 7.5197 7.50072C7.5109 7.50072 6.92716 7.1397 6.22315 6.69942C4.80927 5.81593 4.5394 5.65156 4.49247 5.65156C4.4778 5.65156 4.4426 5.67504 4.4162 5.70439Z" fill="black"/>
</svg>
