<svg width="15" height="15" viewBox="0 0 15 15" fill="none" xmlns="http://www.w3.org/2000/svg">
<path d="M10.3898 0.0374636C9.67745 0.134196 9.02378 0.409735 8.45218 0.85822C8.10922 1.12497 5.67626 3.58137 5.60884 3.72794C5.52677 3.90381 5.53263 4.21746 5.62057 4.38747C5.83162 4.79785 6.28011 4.96494 6.67876 4.78026C6.8136 4.71871 7.0481 4.49886 8.11508 3.43774C8.81566 2.7401 9.45761 2.1216 9.53675 2.06591C10.2725 1.54414 11.2633 1.47965 12.0723 1.89882C13.3591 2.56422 13.7636 4.21746 12.9429 5.44273C12.896 5.51601 12.2775 6.15503 11.5711 6.8644C10.4982 7.94311 10.2754 8.18054 10.2139 8.31538C10.0292 8.71403 10.1963 9.16252 10.6067 9.37357C10.7767 9.46151 11.0903 9.46737 11.2662 9.3853C11.4128 9.31788 13.9073 6.84681 14.1506 6.5273C14.6196 5.91467 14.8834 5.26686 14.9713 4.51938C15.1619 2.93063 14.3851 1.37119 12.9957 0.553368C12.2247 0.0990203 11.2926 -0.0856499 10.3898 0.0374636Z" fill="black"/>
<path d="M9.493 4.45175C9.3435 4.50744 9.15883 4.68332 6.9252 6.91988C4.63001 9.21214 4.51276 9.33525 4.45414 9.49647C4.33396 9.82477 4.39551 10.1091 4.63881 10.3553C4.88503 10.5986 5.16937 10.6602 5.49767 10.54C5.65889 10.4814 5.782 10.3641 8.07426 8.06894C10.3694 5.77668 10.4867 5.65357 10.5453 5.49235C10.6655 5.16405 10.6039 4.87971 10.3607 4.63349C10.1174 4.39019 9.8213 4.32863 9.493 4.45175Z" fill="black"/>
<path d="M3.85934 5.55993C3.79779 5.57459 3.69812 5.62149 3.6395 5.65959C3.48707 5.75633 0.97204 8.28895 0.81082 8.50586C0.37406 9.09505 0.113176 9.74872 0.0281694 10.4698C-0.115463 11.6775 0.294915 12.8852 1.15085 13.7616C2.5901 15.2449 4.92633 15.4061 6.54732 14.131C6.89321 13.8613 9.32324 11.4078 9.39066 11.2613C9.47273 11.0854 9.46687 10.7717 9.37893 10.6017C9.16788 10.1913 8.7194 10.0243 8.32074 10.2089C8.1859 10.2705 7.9514 10.4903 6.88442 11.5515C6.18384 12.2491 5.54483 12.8676 5.46275 12.9233C4.727 13.4451 3.73623 13.5095 2.92134 13.0874C1.64037 12.425 1.23585 10.7688 2.05661 9.54646C2.10351 9.47318 2.72201 8.83416 3.42845 8.1248C4.83253 6.71485 4.86184 6.67968 4.86184 6.36017C4.86184 5.83547 4.36059 5.43389 3.85934 5.55993Z" fill="black"/>
</svg>
