<svg width="15" height="16" viewBox="0 0 15 16" fill="none" xmlns="http://www.w3.org/2000/svg">
<path d="M6.7866 1.00763C4.43991 1.2511 2.38362 2.52711 1.13401 4.51593C-0.294531 6.78635 -0.379599 9.72851 0.914012 12.0781C1.50068 13.1459 2.34256 14.0611 3.38097 14.7563C4.07911 15.2227 5.14098 15.6686 5.95059 15.8299C6.57833 15.956 6.81593 15.9795 7.50527 15.9795C8.19754 15.9795 8.48208 15.9502 9.06582 15.8299C11.6472 15.2902 13.8032 13.36 14.6333 10.8373C14.9032 10.0218 15 9.39704 15 8.48476C15 7.60182 14.9061 6.97995 14.6597 6.21141C14.296 5.0674 13.6917 4.07592 12.8352 3.20765C11.6648 2.02257 10.2157 1.29217 8.54661 1.04576C8.18581 0.992963 7.14447 0.969497 6.7866 1.00763ZM11.0429 6.08527C11.1074 6.14687 11.1544 6.22608 11.172 6.29941C11.2101 6.46074 11.2101 10.6701 11.172 10.805C11.1573 10.8608 11.1016 10.9458 11.0517 10.9957L10.9637 11.0808L7.49647 11.0896C4.14364 11.0955 4.02631 11.0925 3.9383 11.0397C3.7447 10.9194 3.75057 11.0162 3.75057 8.56103C3.75057 6.10287 3.7447 6.16447 3.9383 6.04714C4.02631 5.99434 4.14951 5.99141 7.48474 5.99141H10.9373L11.0429 6.08527Z" fill="black"/>
</svg>
