<svg width="10" height="10" viewBox="0 0 10 10" fill="none" xmlns="http://www.w3.org/2000/svg">
<path d="M4.55195 0.0121342C3.58489 0.106041 2.69221 0.462104 1.90917 1.06467C1.52743 1.35813 1.03215 1.90983 0.746342 2.3598C0.623012 2.55349 0.382225 3.0465 0.29609 3.28126C0.200166 3.54342 0.0964127 3.94644 0.0455146 4.2575C-0.0151715 4.639 -0.0151715 5.36286 0.0455146 5.74436C0.133607 6.28432 0.272598 6.71864 0.50947 7.20187C0.767875 7.72814 1.03607 8.10181 1.46674 8.53417C1.89938 8.96458 2.27328 9.23261 2.79988 9.49085C3.28341 9.72757 3.71801 9.86648 4.25831 9.95451C4.64004 10.0152 5.36436 10.0152 5.7461 9.95451C6.2864 9.86648 6.72099 9.72757 7.20452 9.49085C7.73112 9.23261 8.10503 8.96458 8.53766 8.53417C8.96833 8.10181 9.23653 7.72814 9.49493 7.20187C9.6672 6.85168 9.75334 6.62278 9.84731 6.27063C9.97064 5.8011 10 5.54481 10 5.00093C10 4.45705 9.97064 4.20077 9.84731 3.73123C9.75334 3.37908 9.6672 3.15019 9.49493 2.79999C9.23653 2.27372 8.96833 1.90005 8.53766 1.46769C8.10503 1.03728 7.73112 0.769258 7.20452 0.511014C6.72295 0.274291 6.27661 0.13343 5.75589 0.0512615C5.46812 0.00626446 4.82602 -0.0152552 4.55195 0.0121342ZM7.56472 2.97607C7.90339 3.06606 8.12264 3.40256 8.0737 3.75862C8.04238 3.98556 8.08545 3.93861 6.31576 5.7111C4.42471 7.60489 4.55391 7.49533 4.22894 7.49533C3.91964 7.49533 3.95292 7.52272 2.92517 6.4917C2.27916 5.84414 2.02271 5.57415 1.99139 5.50959C1.90329 5.32178 1.90329 5.06745 1.99334 4.88355C2.05403 4.7603 2.20281 4.61748 2.33593 4.55487C2.43185 4.50988 2.47296 4.50205 2.6237 4.50205C2.92125 4.50205 2.9467 4.51966 3.64166 5.21613L4.22894 5.80305L5.59928 4.43553C6.52327 3.51407 6.99701 3.05432 7.05183 3.02693C7.21431 2.94476 7.38854 2.92911 7.56472 2.97607Z" fill="black"/>
</svg>
