<svg width="10" height="11" viewBox="0 0 10 11" fill="none" xmlns="http://www.w3.org/2000/svg">
<path d="M0.346332 0.599375C0.240763 0.633847 0.0597867 0.819132 0.0274696 0.92901C-0.00915652 1.05612 -0.00915652 3.36141 0.0274696 3.48853C0.0619412 3.60702 0.240763 3.78585 0.359259 3.82032C0.566089 3.88064 0.751374 3.82893 0.891414 3.67381C0.943122 3.6178 0.996984 3.53162 1.00991 3.48422C1.02715 3.4282 1.03576 3.2106 1.03576 2.84218V2.28418L2.28105 3.53377C2.96617 4.22105 3.55866 4.81138 3.59959 4.84154C3.70516 4.92125 3.84951 4.95142 3.99171 4.92125C4.08219 4.90186 4.12528 4.87601 4.21577 4.78552C4.30626 4.69503 4.33211 4.65194 4.3515 4.56146C4.37951 4.42788 4.35366 4.28353 4.28471 4.18227C4.26101 4.14564 3.67715 3.55101 2.98772 2.85942L1.73597 1.60552H2.28751C2.93817 1.60552 2.98557 1.59474 3.13207 1.43316C3.18378 1.37714 3.23764 1.29096 3.25057 1.24356C3.30658 1.05828 3.2678 0.894538 3.13207 0.743725C2.97264 0.567058 3.01357 0.571367 1.6304 0.573522C0.816008 0.575676 0.398039 0.584294 0.346332 0.599375Z" fill="#F99417"/>
<path d="M7.06813 0.599375C6.96256 0.633847 6.78158 0.819132 6.74926 0.92901C6.68894 1.13153 6.73203 1.29312 6.885 1.44393C6.95179 1.51287 7.02504 1.56243 7.08105 1.57966C7.14138 1.5969 7.35036 1.60552 7.71662 1.60552H8.26386L7.01211 2.85942C6.32268 3.55101 5.73882 4.14564 5.71512 4.18227C5.64617 4.28353 5.62032 4.42788 5.64833 4.56146C5.66772 4.65194 5.69357 4.69503 5.78406 4.78552C5.87455 4.87601 5.91764 4.90186 6.00812 4.92125C6.15032 4.95142 6.29467 4.92125 6.40024 4.84154C6.44117 4.81138 7.03366 4.22105 7.71878 3.53377L8.96407 2.28418V2.84218C8.96407 3.21706 8.97268 3.4282 8.98992 3.48853C9.02439 3.60702 9.20321 3.78585 9.32171 3.82032C9.52854 3.88064 9.71382 3.82893 9.85386 3.67381C9.90557 3.6178 9.95943 3.53162 9.97236 3.48422C10.009 3.36357 10.009 1.05397 9.97236 0.933319C9.95943 0.885921 9.90557 0.799742 9.85386 0.743725C9.69443 0.567058 9.73537 0.571367 8.35219 0.573522C7.5378 0.575676 7.11983 0.584294 7.06813 0.599375Z" fill="#F99417"/>
<path d="M3.76333 6.21822C3.71809 6.22899 3.6513 6.25915 3.61252 6.28501C3.57589 6.30871 2.98126 6.89257 2.29182 7.582L1.03576 8.83375V8.28652C1.03576 7.92672 1.02715 7.71127 1.00991 7.65525C0.996984 7.60786 0.943122 7.52168 0.891414 7.46566C0.751373 7.31054 0.566089 7.25883 0.359259 7.31916C0.240763 7.35363 0.0619412 7.53245 0.0274696 7.65095C-0.00915652 7.77806 -0.00915652 10.0833 0.0274696 10.2105C0.0619412 10.329 0.240763 10.5078 0.359259 10.5423C0.423893 10.5616 0.768609 10.5681 1.64333 10.5681C3.01142 10.5681 2.97264 10.5724 3.13207 10.3957C3.32597 10.1803 3.32597 9.92176 3.13207 9.70632C2.98556 9.54258 2.93817 9.53396 2.27674 9.53396H1.71442L2.82398 8.42871C4.30626 6.9529 4.32134 6.93566 4.3515 6.79993C4.42691 6.44875 4.1102 6.13419 3.76333 6.21822Z" fill="#F99417"/>
<path d="M5.99322 6.22037C5.92212 6.23546 5.86826 6.26993 5.78639 6.35395C5.6485 6.48968 5.60972 6.61895 5.6485 6.79993C5.67866 6.93566 5.69374 6.9529 7.17602 8.42871L8.28558 9.53396H7.72757C7.35484 9.53396 7.14155 9.54258 7.08123 9.55981C6.89594 9.61583 6.72358 9.85282 6.72358 10.051C6.72358 10.2492 6.89594 10.4862 7.08123 10.5423C7.14586 10.5616 7.49058 10.5681 8.36529 10.5681C9.73339 10.5681 9.69461 10.5724 9.85404 10.3957C9.90574 10.3397 9.95961 10.2536 9.97253 10.2062C10.0092 10.0855 10.0092 7.77591 9.97253 7.65525C9.95961 7.60786 9.90574 7.52168 9.85404 7.46566C9.714 7.31054 9.52871 7.25883 9.32188 7.31916C9.20338 7.35363 9.02456 7.53245 8.99009 7.65095C8.97286 7.71127 8.96424 7.92026 8.96424 8.28652V8.8316L7.68879 7.5583C6.84854 6.72021 6.38533 6.27208 6.33578 6.25269C6.2259 6.20745 6.10094 6.19452 5.99322 6.22037Z" fill="#F99417"/>
</svg>
