<svg width="15" height="15" viewBox="0 0 15 15" fill="none" xmlns="http://www.w3.org/2000/svg">
<path d="M6.7866 0.0183724C4.43991 0.261841 2.38362 1.53785 1.13401 3.52667C-0.294531 5.79709 -0.379599 8.73925 0.914012 11.0889C1.50068 12.1566 2.34256 13.0718 3.38097 13.767C4.07911 14.2334 5.14098 14.6793 5.95059 14.8406C6.57833 14.9668 6.81593 14.9902 7.50527 14.9902C8.19754 14.9902 8.48208 14.9609 9.06582 14.8406C11.6472 14.3009 13.8032 12.3707 14.6333 9.84806C14.9032 9.03258 15 8.40778 15 7.4955C15 6.61256 14.9061 5.99069 14.6597 5.22215C14.296 4.07814 13.6917 3.08667 12.8352 2.21839C11.6648 1.03331 10.2157 0.302908 8.54661 0.056506C8.18581 0.00370559 7.14447 -0.0197613 6.7866 0.0183724ZM11.0429 5.09602C11.1074 5.15762 11.1544 5.23682 11.172 5.31015C11.2101 5.47149 11.2101 9.68086 11.172 9.81579C11.1573 9.87152 11.1016 9.95659 11.0517 10.0065L10.9637 10.0915L7.49647 10.1003C4.14364 10.1062 4.02631 10.1033 3.9383 10.0505C3.7447 9.93019 3.75057 10.027 3.75057 7.57177C3.75057 5.11362 3.7447 5.17522 3.9383 5.05788C4.02631 5.00508 4.14951 5.00215 7.48474 5.00215H10.9373L11.0429 5.09602Z" fill="black"/>
<path d="M4.4162 5.70084C4.35167 5.77124 4.35167 5.86217 4.41914 5.9179C4.44554 5.94137 4.69487 6.09977 4.96768 6.26991C5.24341 6.44004 5.92102 6.86538 6.47835 7.21445C7.22343 7.68379 7.5021 7.84219 7.5461 7.83045C7.57836 7.81872 8.05944 7.51658 8.61677 7.15871C9.17411 6.80084 9.84292 6.37844 10.1011 6.21711C10.6203 5.89444 10.6848 5.8211 10.5616 5.70084C10.5029 5.63923 10.4941 5.63923 10.4032 5.68324C10.3064 5.72724 9.49971 6.23471 8.63437 6.79204C7.93623 7.24085 7.53436 7.49605 7.5197 7.49605C7.5109 7.49605 6.92716 7.13525 6.22315 6.69524C4.80927 5.8123 4.5394 5.64803 4.49247 5.64803C4.4778 5.64803 4.4426 5.6715 4.4162 5.70084Z" fill="black"/>
</svg>
