<svg width="15" height="16" viewBox="0 0 15 16" fill="none" xmlns="http://www.w3.org/2000/svg">
<path d="M6.56986 1.023C4.08308 1.341 1.93931 2.85236 0.803112 5.0926C-0.100845 6.87193 -0.247336 8.90136 0.392222 10.8236C1.18542 13.2068 3.15411 15.0468 5.59087 15.6864C6.4984 15.9258 7.65603 15.9865 8.59929 15.8472C10.7109 15.5363 12.5617 14.3644 13.7586 12.5708C14.241 11.8562 14.6912 10.7557 14.8555 9.91608C15.1092 8.58337 15.0306 7.35785 14.6054 6.07873C13.6908 3.33828 11.2826 1.37673 8.39206 1.01943C8.04191 0.976556 6.91286 0.980129 6.56986 1.023ZM8.09193 4.66742C8.79938 4.88537 9.40678 5.38201 9.6819 5.96797C9.78909 6.19664 9.83196 6.35028 9.88913 6.72901C9.97131 7.25781 10.0285 7.40072 10.1714 7.45432C10.225 7.47576 10.4608 7.50434 10.693 7.5222C11.1147 7.54722 11.1218 7.55079 11.2254 7.66512L11.3255 7.77946L11.3147 9.05143L11.304 10.327L11.2004 10.6271C10.9432 11.3667 10.3572 11.9455 9.62116 12.1885L9.30317 12.2921H7.48096H5.65875L5.37292 12.1956C4.61902 11.9384 4.04021 11.3738 3.77581 10.6307C3.69363 10.3984 3.69363 10.3984 3.69363 8.45117C3.69363 6.50391 3.69363 6.50391 3.77581 6.27167C4.01877 5.59281 4.57615 5.00685 5.20856 4.76746C5.60516 4.61739 5.79453 4.59953 6.8414 4.59596C7.77037 4.59238 7.86684 4.59953 8.09193 4.66742Z" fill="black"/>
<path d="M5.90503 6.64709C5.6835 6.76142 5.59418 7.108 5.74067 7.30451C5.88359 7.50102 5.98363 7.52246 6.79469 7.52246C7.62719 7.52246 7.73438 7.50102 7.85586 7.30094C7.89873 7.23305 7.92732 7.11872 7.92732 7.02939C7.92732 6.90791 7.90588 6.85432 7.80584 6.74356L7.68436 6.61136L6.84829 6.60064C6.15871 6.59349 5.99792 6.60421 5.90503 6.64709Z" fill="black"/>
<path d="M5.90503 9.43322C5.6835 9.54398 5.59418 9.89413 5.74067 10.0906C5.89788 10.305 5.91575 10.3086 7.49142 10.3086C8.66335 10.3086 8.95276 10.2979 9.0528 10.2586C9.33863 10.1371 9.40652 9.73692 9.18142 9.51183L9.07066 9.39749L7.54144 9.39034C6.23374 9.37963 6.0015 9.38677 5.90503 9.43322Z" fill="black"/>
</svg>
