<svg width="31" height="10" viewBox="0 0 31 10" fill="none" xmlns="http://www.w3.org/2000/svg">
<path d="M5.28 9.044C5.008 9.044 4.76 8.948 4.536 8.756C4.32 8.572 4.132 8.328 3.972 8.024C3.812 7.728 3.676 7.416 3.564 7.088C3.452 6.752 3.364 6.44 3.3 6.152C3.236 5.864 3.192 5.644 3.168 5.492C3.104 5.452 3.056 5.412 3.024 5.372C2.808 5.892 2.628 6.38 2.484 6.836C2.34 7.292 2.268 7.644 2.268 7.892C2.268 8.02 2.292 8.116 2.34 8.18C2.356 8.196 2.364 8.22 2.364 8.252C2.364 8.308 2.32 8.32 2.232 8.288C2.168 8.256 2.076 8.232 1.956 8.216C1.844 8.2 1.748 8.176 1.668 8.144C1.516 8.064 1.404 7.94 1.332 7.772C1.26 7.596 1.224 7.392 1.224 7.16C1.224 6.84 1.276 6.476 1.38 6.068C1.484 5.66 1.612 5.248 1.764 4.832C1.924 4.408 2.088 4.012 2.256 3.644C2.424 3.276 2.572 2.964 2.7 2.708C2.836 2.444 2.928 2.272 2.976 2.192C3.128 1.96 3.312 1.796 3.528 1.7C3.744 1.596 3.976 1.544 4.224 1.544C4.76 1.544 4.988 1.592 4.908 1.688C4.564 2.128 4.24 2.652 3.936 3.26C3.632 3.86 3.376 4.452 3.168 5.036C3.216 5.084 3.304 5.108 3.432 5.108C3.616 5.108 3.82 5.008 4.044 4.808C4.276 4.608 4.492 4.352 4.692 4.04C4.9 3.72 5.068 3.384 5.196 3.032C5.332 2.68 5.4 2.352 5.4 2.048C5.4 1.744 5.316 1.496 5.148 1.304C4.98 1.104 4.696 1.004 4.296 1.004C4.032 1.004 3.728 1.048 3.384 1.136C3.048 1.224 2.716 1.356 2.388 1.532C2.06 1.708 1.776 1.932 1.536 2.204C1.296 2.468 1.14 2.784 1.068 3.152C1.036 3.144 0.956 3.124 0.828 3.092C0.7 3.052 0.576 2.992 0.456 2.912C0.344 2.824 0.288 2.712 0.288 2.576C0.288 2.168 0.468 1.82 0.828 1.532C1.188 1.244 1.68 1.024 2.304 0.872C2.928 0.712 3.632 0.632 4.416 0.632C5.224 0.632 5.82 0.788 6.204 1.1C6.588 1.404 6.78 1.792 6.78 2.264C6.78 2.648 6.664 3.048 6.432 3.464C6.208 3.88 5.9 4.256 5.508 4.592C5.124 4.928 4.688 5.172 4.2 5.324C4.256 5.444 4.348 5.62 4.476 5.852C4.612 6.084 4.764 6.34 4.932 6.62C5.108 6.892 5.288 7.152 5.472 7.4C5.656 7.64 5.832 7.836 6 7.988C6.168 8.132 6.312 8.188 6.432 8.156C6.472 8.148 6.472 8.188 6.432 8.276C6.4 8.364 6.332 8.464 6.228 8.576C6.132 8.696 6.004 8.804 5.844 8.9C5.684 8.996 5.496 9.044 5.28 9.044ZM8.10113 8.18C7.51713 8.18 7.09313 8.048 6.82913 7.784C6.57313 7.52 6.44513 7.172 6.44513 6.74C6.44513 6.412 6.51313 6.052 6.64913 5.66C6.75313 5.34 6.89313 5.016 7.06913 4.688C7.24513 4.352 7.44913 4.044 7.68113 3.764C7.91313 3.476 8.16913 3.248 8.44913 3.08C8.72913 2.904 9.02513 2.816 9.33713 2.816C9.73713 2.816 10.0611 2.88 10.3091 3.008C10.5651 3.128 10.6931 3.328 10.6931 3.608C10.6931 3.816 10.6091 4.076 10.4411 4.388C10.2171 4.82 9.88913 5.176 9.45713 5.456C9.02513 5.736 8.54113 5.896 8.00513 5.936C7.88513 6.264 7.81313 6.532 7.78913 6.74C7.78113 6.78 7.77713 6.82 7.77713 6.86C7.77713 6.892 7.77713 6.928 7.77713 6.968C7.77713 7.232 7.83713 7.424 7.95713 7.544C8.07713 7.656 8.22513 7.712 8.40113 7.712C8.72913 7.712 9.01713 7.628 9.26513 7.46C9.51313 7.292 9.72913 7.08 9.91313 6.824C10.1051 6.568 10.2691 6.312 10.4051 6.056C10.4851 5.912 10.5531 5.78 10.6091 5.66C10.6651 5.532 10.7091 5.44 10.7411 5.384C10.7811 5.32 10.8251 5.288 10.8731 5.288C10.9211 5.288 10.9651 5.316 11.0051 5.372C11.0451 5.42 11.0491 5.476 11.0171 5.54C10.9131 5.748 10.7691 6.024 10.5851 6.368C10.4011 6.712 10.1931 7.016 9.96113 7.28C9.70513 7.584 9.42913 7.812 9.13313 7.964C8.84513 8.108 8.50113 8.18 8.10113 8.18ZM8.16113 5.588C8.52113 5.452 8.83713 5.208 9.10913 4.856C9.38913 4.504 9.57713 4.116 9.67313 3.692C9.68113 3.652 9.68513 3.616 9.68513 3.584C9.69313 3.552 9.69713 3.52 9.69713 3.488C9.69713 3.328 9.64913 3.248 9.55313 3.248C9.47313 3.248 9.38913 3.304 9.30113 3.416C9.17313 3.568 9.03713 3.776 8.89313 4.04C8.74913 4.296 8.62113 4.548 8.50913 4.796C8.39713 5.044 8.31313 5.232 8.25713 5.36L8.16113 5.588ZM11.8089 8.084C11.3209 8.084 10.9169 7.94 10.5969 7.652C10.2769 7.364 10.1169 6.964 10.1169 6.452C10.1169 6.276 10.1369 6.092 10.1769 5.9C10.2169 5.708 10.2809 5.544 10.3689 5.408C10.4569 5.272 10.5729 5.204 10.7169 5.204C10.8049 5.204 10.8689 5.232 10.9089 5.288C11.0049 5.104 11.1089 4.92 11.2209 4.736C11.3329 4.552 11.4449 4.364 11.5569 4.172C11.6849 3.964 11.8329 3.736 12.0009 3.488C12.1769 3.232 12.3769 3.008 12.6009 2.816C12.8249 2.616 13.0689 2.504 13.3329 2.48C13.3649 2.472 13.3969 2.468 13.4289 2.468C13.4689 2.468 13.5049 2.468 13.5369 2.468C13.6249 2.468 13.7169 2.472 13.8129 2.48C13.9089 2.488 13.9809 2.496 14.0289 2.504C14.0449 2.512 14.0569 2.536 14.0649 2.576C14.0729 2.616 14.0529 2.636 14.0049 2.636C13.9729 2.636 13.9089 2.66 13.8129 2.708C13.7169 2.748 13.6609 2.848 13.6449 3.008C13.6289 3.568 13.5929 4.128 13.5369 4.688C13.4889 5.248 13.4129 5.716 13.3089 6.092C13.2609 6.284 13.1849 6.492 13.0809 6.716C12.9769 6.94 12.8529 7.14 12.7089 7.316C12.5649 7.492 12.4129 7.612 12.2529 7.676C12.4129 7.676 12.5809 7.628 12.7569 7.532C12.9409 7.428 13.1089 7.304 13.2609 7.16C13.4209 7.016 13.5409 6.888 13.6209 6.776C13.7969 6.528 13.9569 6.268 14.1009 5.996C14.2529 5.716 14.3649 5.5 14.4369 5.348C14.4609 5.308 14.4889 5.288 14.5209 5.288C14.5609 5.288 14.5969 5.312 14.6289 5.36C14.6609 5.408 14.6769 5.46 14.6769 5.516C14.6769 5.532 14.6729 5.548 14.6649 5.564C14.6649 5.58 14.6609 5.596 14.6529 5.612C14.5089 5.9 14.3489 6.192 14.1729 6.488C14.0049 6.776 13.8089 7.044 13.5849 7.292C13.3609 7.532 13.1049 7.724 12.8169 7.868C12.5289 8.012 12.1929 8.084 11.8089 8.084ZM11.0289 7.328C11.1169 7.328 11.2049 7.3 11.2929 7.244C11.3809 7.188 11.4529 7.1 11.5089 6.98C11.6289 6.716 11.7369 6.412 11.8329 6.068C11.9289 5.724 12.0129 5.384 12.0849 5.048C12.1569 4.704 12.2169 4.4 12.2649 4.136C12.3209 3.864 12.3609 3.668 12.3849 3.548C12.2649 3.692 12.1169 3.896 11.9409 4.16C11.7729 4.424 11.6089 4.688 11.4489 4.952C11.2969 5.216 11.1809 5.428 11.1009 5.588C11.1089 5.772 11.0369 5.936 10.8849 6.08C10.7329 6.224 10.6009 6.372 10.4889 6.524V6.656C10.4889 6.688 10.4889 6.728 10.4889 6.776C10.4969 6.824 10.5049 6.868 10.5129 6.908C10.5529 7.036 10.6209 7.14 10.7169 7.22C10.8209 7.292 10.9249 7.328 11.0289 7.328ZM17.2409 8.072C16.8889 8.072 16.6369 7.948 16.4849 7.7C16.3329 7.452 16.2609 7.164 16.2689 6.836C16.0209 7.3 15.7649 7.616 15.5009 7.784C15.2449 7.944 14.9849 8.024 14.7209 8.024C14.4009 8.024 14.1809 7.94 14.0609 7.772C13.9409 7.604 13.8809 7.404 13.8809 7.172C13.8809 6.988 13.9009 6.804 13.9409 6.62C13.9889 6.428 14.0409 6.252 14.0969 6.092C14.2009 5.788 14.3129 5.48 14.4329 5.168C14.5609 4.848 14.6849 4.56 14.8049 4.304C14.9249 4.048 15.0169 3.86 15.0809 3.74C15.2409 3.452 15.4209 3.256 15.6209 3.152C15.8209 3.04 16.0249 2.984 16.2329 2.984C16.2969 2.984 16.3609 2.988 16.4249 2.996C16.4969 3.004 16.5609 3.016 16.6169 3.032C16.7209 3.056 16.8009 3.08 16.8569 3.104C16.9129 3.12 16.9409 3.152 16.9409 3.2C16.9409 3.224 16.9289 3.26 16.9049 3.308C16.7929 3.5 16.6529 3.748 16.4849 4.052C16.3249 4.348 16.1609 4.668 15.9929 5.012C15.8249 5.356 15.6729 5.696 15.5369 6.032C15.4089 6.36 15.3169 6.656 15.2609 6.92C15.2529 6.96 15.2449 6.996 15.2369 7.028C15.2369 7.06 15.2369 7.092 15.2369 7.124C15.2369 7.26 15.2889 7.328 15.3929 7.328C15.4969 7.328 15.6089 7.248 15.7289 7.088C15.8489 6.928 15.9649 6.736 16.0769 6.512C16.1969 6.288 16.2969 6.084 16.3769 5.9C16.4649 5.708 16.5209 5.588 16.5449 5.54C16.6809 5.26 16.8009 4.992 16.9049 4.736C17.0169 4.472 17.1369 4.216 17.2649 3.968C17.4409 3.616 17.6209 3.356 17.8049 3.188C17.9889 3.02 18.1809 2.92 18.3809 2.888C18.4449 2.872 18.5049 2.864 18.5609 2.864C18.6249 2.864 18.6849 2.864 18.7409 2.864C18.8769 2.864 18.9969 2.868 19.1009 2.876C19.2129 2.884 19.2929 2.892 19.3409 2.9C19.4769 2.908 19.5449 2.948 19.5449 3.02C19.5449 3.108 19.4849 3.16 19.3649 3.176C19.2849 3.184 19.1769 3.288 19.0409 3.488C18.9129 3.68 18.7769 3.908 18.6329 4.172C18.4089 4.588 18.1929 5.036 17.9849 5.516C17.7769 5.988 17.6289 6.464 17.5409 6.944C17.5329 7 17.5249 7.052 17.5169 7.1C17.5169 7.14 17.5169 7.18 17.5169 7.22C17.5169 7.42 17.5689 7.52 17.6729 7.52C17.8009 7.52 17.9329 7.452 18.0689 7.316C18.2049 7.18 18.3369 7.016 18.4649 6.824C18.5769 6.656 18.6889 6.468 18.8009 6.26C18.9129 6.052 19.0129 5.86 19.1009 5.684C19.1889 5.5 19.2529 5.372 19.2929 5.3C19.3169 5.252 19.3489 5.228 19.3889 5.228C19.4369 5.228 19.4809 5.264 19.5209 5.336C19.5609 5.4 19.5649 5.464 19.5329 5.528C19.3809 5.824 19.2169 6.14 19.0409 6.476C18.8649 6.812 18.6729 7.116 18.4649 7.388C18.1129 7.844 17.7049 8.072 17.2409 8.072ZM24.1328 8.096C23.7328 8.096 23.4608 7.988 23.3168 7.772C23.1728 7.556 23.1008 7.304 23.1008 7.016C23.1008 6.8 23.1248 6.588 23.1728 6.38C23.2208 6.164 23.2728 5.976 23.3288 5.816C23.3848 5.648 23.4208 5.532 23.4368 5.468C23.5248 5.204 23.6288 4.94 23.7488 4.676C23.8768 4.412 23.9608 4.192 24.0008 4.016C23.9048 4.096 23.7768 4.248 23.6168 4.472C23.4568 4.688 23.2808 4.94 23.0888 5.228C22.9048 5.516 22.7288 5.816 22.5608 6.128C22.4008 6.432 22.2648 6.72 22.1528 6.992C22.0488 7.264 21.9967 7.488 21.9967 7.664C21.9967 7.776 22.0208 7.864 22.0688 7.928C21.9968 7.952 21.9248 7.976 21.8528 8C21.7808 8.016 21.7088 8.024 21.6367 8.024C21.3568 8.024 21.1608 7.948 21.0488 7.796C20.9448 7.644 20.8928 7.46 20.8928 7.244C20.8928 6.98 20.9408 6.7 21.0368 6.404C21.1408 6.108 21.2328 5.868 21.3128 5.684C21.3768 5.54 21.4568 5.348 21.5527 5.108C21.6568 4.868 21.7608 4.632 21.8648 4.4C21.9768 4.16 22.0728 3.976 22.1528 3.848C22.0648 3.928 21.9288 4.08 21.7448 4.304C21.5688 4.528 21.3728 4.792 21.1568 5.096C20.9408 5.4 20.7328 5.716 20.5328 6.044C20.3328 6.364 20.1688 6.668 20.0408 6.956C19.9128 7.244 19.8488 7.484 19.8488 7.676C19.8488 7.804 19.8768 7.896 19.9328 7.952C19.9568 7.976 19.9688 7.996 19.9688 8.012C19.9688 8.052 19.9248 8.064 19.8368 8.048C19.6528 8.016 19.4728 7.984 19.2968 7.952C19.1208 7.912 18.9728 7.836 18.8528 7.724C18.7408 7.604 18.6848 7.408 18.6848 7.136C18.6848 6.92 18.7408 6.66 18.8528 6.356C18.9648 6.044 19.0968 5.724 19.2488 5.396C19.4008 5.068 19.5328 4.764 19.6448 4.484C19.6688 4.42 19.7088 4.324 19.7648 4.196C19.8208 4.06 19.8768 3.92 19.9328 3.776C19.9968 3.624 20.0448 3.492 20.0768 3.38C20.1088 3.26 20.1168 3.18 20.1008 3.14C20.0848 3.108 20.0768 3.084 20.0768 3.068C20.0768 2.972 20.1408 2.924 20.2688 2.924C20.3968 2.924 20.5248 2.944 20.6528 2.984C20.7888 3.016 20.9088 3.072 21.0128 3.152C21.1248 3.232 21.2128 3.328 21.2768 3.44C21.3408 3.552 21.3728 3.676 21.3728 3.812C21.3728 3.9 21.3528 4.004 21.3128 4.124C21.2888 4.196 21.2408 4.296 21.1688 4.424C21.1048 4.544 21.0408 4.664 20.9768 4.784C20.9208 4.896 20.8888 4.976 20.8808 5.024C21.0088 4.84 21.1488 4.636 21.3008 4.412C21.4608 4.188 21.6128 3.976 21.7568 3.776C21.9088 3.568 22.0408 3.392 22.1528 3.248C22.2728 3.096 22.3608 3 22.4168 2.96C22.5048 2.896 22.6088 2.864 22.7288 2.864C22.8968 2.864 23.0808 2.912 23.2808 3.008C23.4168 3.064 23.5088 3.14 23.5568 3.236C23.6128 3.324 23.6408 3.424 23.6408 3.536C23.6408 3.696 23.5968 3.864 23.5088 4.04C23.4288 4.208 23.3528 4.36 23.2808 4.496C23.4408 4.272 23.6008 4.048 23.7608 3.824C23.9288 3.6 24.0808 3.4 24.2168 3.224C24.3608 3.048 24.4768 2.928 24.5648 2.864C24.6288 2.816 24.7328 2.792 24.8768 2.792C25.0448 2.792 25.2168 2.844 25.3928 2.948C25.5688 3.052 25.6568 3.24 25.6568 3.512C25.6568 3.616 25.6368 3.736 25.5968 3.872C25.5568 4.008 25.4928 4.16 25.4048 4.328C25.0608 4.984 24.7968 5.576 24.6128 6.104C24.4288 6.624 24.3368 7.008 24.3368 7.256C24.3368 7.432 24.3848 7.52 24.4808 7.52C24.5928 7.52 24.7168 7.448 24.8528 7.304C24.9968 7.16 25.1368 6.988 25.2728 6.788C25.4488 6.532 25.6088 6.26 25.7528 5.972C25.9048 5.684 26.0088 5.484 26.0648 5.372C26.0888 5.324 26.1248 5.3 26.1728 5.3C26.2208 5.3 26.2648 5.328 26.3048 5.384C26.3528 5.432 26.3608 5.488 26.3288 5.552C26.2728 5.664 26.1888 5.82 26.0768 6.02C25.9728 6.212 25.8528 6.424 25.7168 6.656C25.5808 6.88 25.4328 7.096 25.2728 7.304C25.0968 7.528 24.9128 7.716 24.7208 7.868C24.5288 8.02 24.3328 8.096 24.1328 8.096ZM27.4253 8.18C26.8413 8.18 26.4173 8.048 26.1533 7.784C25.8973 7.52 25.7693 7.172 25.7693 6.74C25.7693 6.412 25.8373 6.052 25.9733 5.66C26.0773 5.34 26.2173 5.016 26.3933 4.688C26.5693 4.352 26.7733 4.044 27.0053 3.764C27.2373 3.476 27.4933 3.248 27.7733 3.08C28.0533 2.904 28.3493 2.816 28.6613 2.816C29.0613 2.816 29.3853 2.88 29.6333 3.008C29.8893 3.128 30.0173 3.328 30.0173 3.608C30.0173 3.816 29.9333 4.076 29.7653 4.388C29.5413 4.82 29.2133 5.176 28.7813 5.456C28.3493 5.736 27.8653 5.896 27.3293 5.936C27.2093 6.264 27.1373 6.532 27.1133 6.74C27.1053 6.78 27.1013 6.82 27.1013 6.86C27.1013 6.892 27.1013 6.928 27.1013 6.968C27.1013 7.232 27.1613 7.424 27.2813 7.544C27.4013 7.656 27.5493 7.712 27.7253 7.712C28.0533 7.712 28.3413 7.628 28.5893 7.46C28.8373 7.292 29.0533 7.08 29.2373 6.824C29.4293 6.568 29.5933 6.312 29.7293 6.056C29.8093 5.912 29.8773 5.78 29.9333 5.66C29.9893 5.532 30.0333 5.44 30.0653 5.384C30.1053 5.32 30.1493 5.288 30.1973 5.288C30.2453 5.288 30.2893 5.316 30.3293 5.372C30.3693 5.42 30.3733 5.476 30.3413 5.54C30.2373 5.748 30.0933 6.024 29.9093 6.368C29.7253 6.712 29.5173 7.016 29.2853 7.28C29.0293 7.584 28.7533 7.812 28.4573 7.964C28.1693 8.108 27.8253 8.18 27.4253 8.18ZM27.4853 5.588C27.8453 5.452 28.1613 5.208 28.4333 4.856C28.7133 4.504 28.9013 4.116 28.9973 3.692C29.0053 3.652 29.0093 3.616 29.0093 3.584C29.0173 3.552 29.0213 3.52 29.0213 3.488C29.0213 3.328 28.9733 3.248 28.8773 3.248C28.7973 3.248 28.7133 3.304 28.6253 3.416C28.4973 3.568 28.3613 3.776 28.2173 4.04C28.0733 4.296 27.9453 4.548 27.8333 4.796C27.7213 5.044 27.6373 5.232 27.5813 5.36L27.4853 5.588Z" fill="black"/>
</svg>
